<?xml version="1.0" standalone="no"?>
<!DOCTYPE svg PUBLIC "-//W3C//DTD SVG 20010904//EN"
 "http://www.w3.org/TR/2001/REC-SVG-20010904/DTD/svg10.dtd">
<svg version="1.0" xmlns="http://www.w3.org/2000/svg"
 width="100.000000pt" height="66.000000pt" viewBox="0 0 126.000000 66.000000"
 preserveAspectRatio="xMidYMid meet">

<g transform="translate(0.000000,66.000000) scale(0.100000,-0.100000)"
fill="#000000" stroke="none">
<path d="M1000 628 c-25 -13 -54 -37 -66 -55 l-21 -31 -11 32 c-19 53 -55 66
-176 66 l-106 0 0 -160 0 -160 60 0 60 0 0 39 c0 38 0 38 48 45 51 7 112 38
112 58 0 6 -11 2 -23 -10 -26 -24 -76 -42 -119 -42 -26 0 -28 -3 -28 -40 l0
-40 -50 0 -50 0 0 150 0 150 106 0 c102 0 106 -1 133 -28 23 -23 29 -38 34
-99 3 -39 13 -85 21 -101 45 -87 172 -117 262 -62 38 24 74 92 74 142 0 55
-39 118 -90 145 -55 29 -113 29 -170 1z m177 -14 c52 -39 68 -71 68 -134 0
-90 -50 -146 -142 -156 -105 -13 -183 54 -183 156 0 67 29 116 84 142 52 24
135 20 173 -8z"/>
<path d="M1042 534 c-16 -11 -22 -25 -22 -54 0 -64 62 -92 108 -50 63 59 -15
154 -86 104z m80 -11 c35 -32 12 -103 -34 -103 -40 0 -58 19 -58 60 0 56 51
80 92 43z"/>
<path d="M0 480 l0 -160 189 0 190 0 25 32 25 33 28 -33 c27 -32 30 -33 91
-30 l63 3 -57 78 -57 79 20 26 c10 15 36 51 57 80 l38 52 -69 0 c-64 0 -69 -2
-88 -30 -11 -16 -22 -30 -25 -30 -3 0 -14 14 -25 30 l-20 30 -192 0 -193 0 0
-160z m240 110 l0 -40 -65 0 c-51 0 -65 -3 -65 -15 0 -11 12 -15 44 -15 l45 0
4 -42 4 -43 1 48 2 47 -47 2 c-43 1 -42 2 17 7 l65 6 5 45 5 45 48 -67 c26
-37 49 -73 52 -80 3 -7 -20 -47 -50 -88 l-55 -75 0 48 0 47 -64 0 c-42 0 -66
4 -69 13 -3 7 -6 5 -6 -5 -1 -15 8 -18 64 -18 l65 0 0 -40 0 -40 -115 0 -115
0 0 150 0 150 115 0 115 0 0 -40z m163 8 l27 -33 28 33 c24 29 32 32 80 32
l53 0 -52 -74 -52 -75 45 -63 c67 -94 66 -88 5 -88 -51 0 -56 2 -78 35 -13 19
-26 35 -29 35 -3 0 -16 -16 -29 -35 -22 -33 -27 -35 -79 -35 -52 0 -54 1 -41
20 8 11 31 44 53 75 21 30 36 60 33 67 -4 7 -27 41 -52 76 l-46 62 53 0 c48 0
56 -3 81 -32z"/>
<path d="M732 523 c4 -45 27 -54 58 -23 28 28 12 60 -31 60 -29 0 -30 -2 -27
-37z m62 12 c6 -17 -19 -45 -40 -45 -9 0 -14 11 -14 30 0 25 4 30 24 30 13 0
26 -7 30 -15z"/>
<path d="M0 150 l0 -150 630 0 630 0 0 150 0 150 -630 0 -630 0 0 -150z m214
80 c18 -18 19 -22 6 -30 -8 -6 -24 -8 -35 -4 -11 3 -29 8 -41 11 -52 12 -76
-82 -29 -113 21 -14 31 -15 50 -6 32 15 32 32 0 32 -20 0 -25 5 -25 25 0 24 3
25 55 25 52 0 55 -1 55 -25 0 -107 -143 -145 -200 -53 -24 40 -25 69 -4 109
30 58 123 74 168 29z m198 -77 l34 -98 -25 -3 c-14 -2 -28 3 -33 12 -12 21
-84 22 -92 1 -3 -8 -17 -15 -32 -15 -17 0 -24 4 -21 13 2 6 17 51 33 100 l28
87 37 0 36 0 35 -97z m207 60 c-12 -21 -36 -57 -51 -80 l-29 -43 46 0 c38 0
45 -3 45 -20 0 -18 -7 -20 -85 -20 -47 0 -85 3 -85 6 0 3 20 37 45 75 25 38
45 72 45 74 0 3 -18 5 -40 5 -33 0 -40 3 -40 20 0 18 7 20 86 20 l86 0 -23
-37z m161 17 c0 -16 -7 -20 -35 -20 -28 0 -35 -4 -35 -20 0 -16 7 -20 35 -20
28 0 35 -4 35 -20 0 -16 -7 -20 -35 -20 -28 0 -35 -4 -35 -20 0 -16 7 -20 35
-20 28 0 35 -4 35 -20 0 -18 -7 -20 -60 -20 l-60 0 0 100 0 100 60 0 c53 0 60
-2 60 -20z m160 -5 c0 -20 -5 -25 -25 -25 -24 0 -25 -2 -25 -75 0 -73 -1 -75
-25 -75 -24 0 -25 2 -25 75 0 73 -1 75 -25 75 -20 0 -25 5 -25 25 0 24 2 25
75 25 73 0 75 -1 75 -25z m150 0 c0 -18 -5 -25 -20 -25 -18 0 -20 -7 -20 -75
l0 -75 -30 0 -30 0 0 75 c0 68 -2 75 -20 75 -15 0 -20 7 -20 25 0 24 2 25 70
25 68 0 70 -1 70 -25z m140 5 c0 -16 -7 -20 -35 -20 -28 0 -35 -4 -35 -20 0
-16 7 -20 35 -20 28 0 35 -4 35 -20 0 -16 -7 -20 -35 -20 -28 0 -35 -4 -35
-20 0 -16 7 -20 35 -20 28 0 35 -4 35 -20 0 -18 -7 -20 -65 -20 l-65 0 0 100
0 100 65 0 c58 0 65 -2 65 -20z"/>
<path d="M332 180 c-18 -49 -15 -60 13 -60 14 0 25 1 25 3 0 1 -6 22 -14 46
l-13 45 -11 -34z"/>
</g>
</svg>
